<svg width="37" height="37" viewBox="0 0 25 25" fill="none" xmlns="http://www.w3.org/2000/svg">
<path d="M25 4.68747V20.3125C25 21.1992 24.3242 21.875 23.4375 21.875H21.875V7.6945L12.5 14.4289L3.125 7.6945V21.875H1.5625C0.675781 21.875 0 21.1992 0 20.3125V4.68747C0 4.24372 0.167188 3.85309 0.447656 3.57653C0.593649 3.43027 0.767601 3.31491 0.959138 3.23733C1.15068 3.15975 1.35588 3.12154 1.5625 3.12497H2.08359L12.5 10.6773L22.9164 3.12497H23.4375C23.8813 3.12497 24.2719 3.29216 24.5523 3.57653C24.8328 3.85309 25 4.24372 25 4.68747Z" fill="#565656"/>
</svg>
