<svg width="37" height="37" viewBox="0 0 37 37" fill="none" xmlns="http://www.w3.org/2000/svg">
<path d="M18.5 3.08337C16.4755 3.08337 14.4707 3.48214 12.6003 4.2569C10.7299 5.03166 9.03034 6.16724 7.59877 7.59881C4.70759 10.49 3.08334 14.4113 3.08334 18.5C3.08334 25.3142 7.50792 31.0955 13.6283 33.1459C14.3992 33.2692 14.6458 32.7913 14.6458 32.375V29.7696C10.3754 30.6946 9.46584 27.7038 9.46584 27.7038C8.75667 25.9155 7.75459 25.4375 7.75459 25.4375C6.35167 24.4817 7.8625 24.5125 7.8625 24.5125C9.40417 24.6205 10.2213 26.1005 10.2213 26.1005C11.5625 28.4438 13.8288 27.75 14.7075 27.38C14.8463 26.378 15.2471 25.6996 15.6788 25.3142C12.2563 24.9288 8.66417 23.603 8.66417 17.7292C8.66417 16.018 9.25 14.6459 10.2521 13.5513C10.0979 13.1659 9.55834 11.5625 10.4063 9.48129C10.4063 9.48129 11.7013 9.06504 14.6458 11.0538C15.8638 10.7146 17.1896 10.545 18.5 10.545C19.8104 10.545 21.1363 10.7146 22.3542 11.0538C25.2988 9.06504 26.5938 9.48129 26.5938 9.48129C27.4417 11.5625 26.9021 13.1659 26.7479 13.5513C27.75 14.6459 28.3358 16.018 28.3358 17.7292C28.3358 23.6184 24.7283 24.9134 21.2904 25.2988C21.8454 25.7767 22.3542 26.7171 22.3542 28.1509V32.375C22.3542 32.7913 22.6008 33.2846 23.3871 33.1459C29.5075 31.08 33.9167 25.3142 33.9167 18.5C33.9167 16.4755 33.5179 14.4708 32.7431 12.6003C31.9684 10.7299 30.8328 9.03038 29.4012 7.59881C27.9697 6.16724 26.2701 5.03166 24.3997 4.2569C22.5293 3.48214 20.5245 3.08337 18.5 3.08337Z" fill="#565656"/>
</svg>
