<svg width="37" height="37" viewBox="0 0 37 37" fill="none" xmlns="http://www.w3.org/2000/svg">
<path d="M12.025 3.08337H24.975C29.9083 3.08337 33.9167 7.09171 33.9167 12.025V24.975C33.9167 27.3465 32.9746 29.6209 31.2977 31.2978C29.6208 32.9746 27.3465 33.9167 24.975 33.9167H12.025C7.09167 33.9167 3.08334 29.9084 3.08334 24.975V12.025C3.08334 9.65356 4.0254 7.37922 5.70229 5.70233C7.37918 4.02544 9.65353 3.08337 12.025 3.08337ZM11.7167 6.16671C10.2447 6.16671 8.83305 6.75144 7.79223 7.79226C6.7514 8.83309 6.16667 10.2448 6.16667 11.7167V25.2834C6.16667 28.3513 8.64875 30.8334 11.7167 30.8334H25.2833C26.7553 30.8334 28.167 30.2486 29.2078 29.2078C30.2486 28.167 30.8333 26.7553 30.8333 25.2834V11.7167C30.8333 8.64879 28.3513 6.16671 25.2833 6.16671H11.7167ZM26.5938 8.47921C27.1048 8.47921 27.595 8.68224 27.9564 9.04364C28.3178 9.40504 28.5208 9.8952 28.5208 10.4063C28.5208 10.9174 28.3178 11.4075 27.9564 11.7689C27.595 12.1303 27.1048 12.3334 26.5938 12.3334C26.0827 12.3334 25.5925 12.1303 25.2311 11.7689C24.8697 11.4075 24.6667 10.9174 24.6667 10.4063C24.6667 9.8952 24.8697 9.40504 25.2311 9.04364C25.5925 8.68224 26.0827 8.47921 26.5938 8.47921ZM18.5 10.7917C20.5444 10.7917 22.505 11.6038 23.9506 13.0494C25.3962 14.495 26.2083 16.4557 26.2083 18.5C26.2083 20.5444 25.3962 22.5051 23.9506 23.9507C22.505 25.3962 20.5444 26.2084 18.5 26.2084C16.4556 26.2084 14.495 25.3962 13.0494 23.9507C11.6038 22.5051 10.7917 20.5444 10.7917 18.5C10.7917 16.4557 11.6038 14.495 13.0494 13.0494C14.495 11.6038 16.4556 10.7917 18.5 10.7917ZM18.5 13.875C17.2734 13.875 16.097 14.3623 15.2296 15.2297C14.3623 16.097 13.875 17.2734 13.875 18.5C13.875 19.7267 14.3623 20.9031 15.2296 21.7704C16.097 22.6378 17.2734 23.125 18.5 23.125C19.7266 23.125 20.903 22.6378 21.7704 21.7704C22.6377 20.9031 23.125 19.7267 23.125 18.5C23.125 17.2734 22.6377 16.097 21.7704 15.2297C20.903 14.3623 19.7266 13.875 18.5 13.875Z" fill="#565656"/>
</svg>
